<mxfile host="Electron" modified="2023-05-08T13:48:02.644Z" agent="Mozilla/5.0 (Windows NT 10.0; Win64; x64) AppleWebKit/537.36 (KHTML, like Gecko) draw.io/21.2.8 Chrome/112.0.5615.165 Electron/24.2.0 Safari/537.36" etag="iXpPAxEhEq2mQ2bt68BR" version="21.2.8" type="device">
  <diagram id="0vhZ1a2vEWbwYD3_x5Hq" name="第 1 页">
    <mxGraphModel dx="699" dy="426" grid="1" gridSize="10" guides="1" tooltips="1" connect="1" arrows="1" fold="1" page="1" pageScale="1" pageWidth="827" pageHeight="1169" math="1" shadow="0">
      <root>
        <mxCell id="0" />
        <mxCell id="1" parent="0" />
        <mxCell id="Fxq-wvsZDKYLinho3GOP-20" value="" style="rounded=1;whiteSpace=wrap;html=1;strokeWidth=0.5;fillColor=#D5E8D4;strokeColor=#000000;" parent="1" vertex="1">
          <mxGeometry x="171" y="567.4" width="400" height="24.5" as="geometry" />
        </mxCell>
        <mxCell id="Fxq-wvsZDKYLinho3GOP-19" value="" style="rounded=1;whiteSpace=wrap;html=1;strokeWidth=0.5;fillColor=#D5E8D4;strokeColor=#000000;" parent="1" vertex="1">
          <mxGeometry x="171" y="527.4" width="400" height="24.3" as="geometry" />
        </mxCell>
        <mxCell id="Fxq-wvsZDKYLinho3GOP-18" value="" style="rounded=1;whiteSpace=wrap;html=1;strokeWidth=0.5;fillColor=#F0F0F0;strokeColor=#000000;" parent="1" vertex="1">
          <mxGeometry x="171" y="506.4" width="400" height="8" as="geometry" />
        </mxCell>
        <mxCell id="Fxq-wvsZDKYLinho3GOP-17" value="" style="rounded=1;whiteSpace=wrap;html=1;strokeWidth=0.5;fillColor=#F0F0F0;strokeColor=#000000;" parent="1" vertex="1">
          <mxGeometry x="171" y="498.4" width="400" height="8" as="geometry" />
        </mxCell>
        <mxCell id="Ra1UkYBC7Bc8kQ_S5JcI-1" value="" style="rounded=1;whiteSpace=wrap;html=1;strokeWidth=0.5;fillColor=#F0F0F0;strokeColor=#000000;glass=0;" parent="1" vertex="1">
          <mxGeometry x="171" y="490.4" width="400" height="8" as="geometry" />
        </mxCell>
        <mxCell id="Trnzre_r4BiW6Tw0E5rN-30" value="" style="shape=curlyBracket;whiteSpace=wrap;html=1;rounded=1;flipH=1;rotation=-90;" parent="1" vertex="1">
          <mxGeometry x="182" y="476" width="6" height="20" as="geometry" />
        </mxCell>
        <mxCell id="Trnzre_r4BiW6Tw0E5rN-31" value="&lt;h6 style=&quot;font-size: 10px;&quot;&gt;&lt;span style=&quot;font-weight: normal;&quot;&gt;&lt;font style=&quot;font-size: 10px; line-height: 0.2;&quot;&gt;Prepare a&amp;nbsp;&lt;/font&gt;proposal&lt;/span&gt;&lt;/h6&gt;" style="text;html=1;strokeColor=none;fillColor=none;align=center;verticalAlign=middle;whiteSpace=wrap;rounded=0;" parent="1" vertex="1">
          <mxGeometry x="165" y="447.33" width="99" height="55" as="geometry" />
        </mxCell>
        <mxCell id="Trnzre_r4BiW6Tw0E5rN-66" value="" style="shape=curlyBracket;whiteSpace=wrap;html=1;rounded=1;flipH=1;rotation=-90;" parent="1" vertex="1">
          <mxGeometry x="277" y="486.5" width="6" height="2" as="geometry" />
        </mxCell>
        <mxCell id="Trnzre_r4BiW6Tw0E5rN-67" value="&lt;h6 style=&quot;font-size: 10px;&quot;&gt;&lt;span style=&quot;font-weight: normal;&quot;&gt;&lt;font style=&quot;font-size: 10px; line-height: 0.2;&quot;&gt;Prepare a&amp;nbsp;&lt;/font&gt;transaction&lt;/span&gt;&lt;/h6&gt;" style="text;html=1;strokeColor=none;fillColor=none;align=center;verticalAlign=middle;whiteSpace=wrap;rounded=0;" parent="1" vertex="1">
          <mxGeometry x="264.25" y="447" width="106.75" height="55" as="geometry" />
        </mxCell>
        <mxCell id="Trnzre_r4BiW6Tw0E5rN-139" value="" style="verticalLabelPosition=bottom;verticalAlign=top;html=1;shape=mxgraph.basic.rect;fillColor2=none;strokeWidth=1;size=20;indent=5;fontSize=7;fillColor=#A38E8B;strokeColor=#8C3428;" parent="1" vertex="1">
          <mxGeometry x="275" y="492.33" width="2" height="4" as="geometry" />
        </mxCell>
        <mxCell id="Trnzre_r4BiW6Tw0E5rN-186" value="" style="strokeWidth=1;html=1;shape=mxgraph.flowchart.start_1;whiteSpace=wrap;labelBackgroundColor=none;fontSize=5;fillColor=none;rotation=90;strokeColor=#CC6600;fontStyle=1" parent="1" vertex="1">
          <mxGeometry x="143.31" y="427.79" width="3.94" height="28.51" as="geometry" />
        </mxCell>
        <mxCell id="Trnzre_r4BiW6Tw0E5rN-187" value="&lt;h6 style=&quot;&quot;&gt;&lt;font style=&quot;line-height: 0.2; font-weight: normal; font-size: 10px;&quot;&gt;Nodejs asynchronous requests&amp;nbsp;&lt;/font&gt;&lt;/h6&gt;" style="text;html=1;strokeColor=none;fillColor=none;align=center;verticalAlign=middle;whiteSpace=wrap;rounded=0;" parent="1" vertex="1">
          <mxGeometry x="161.25" y="416" width="149.75" height="55" as="geometry" />
        </mxCell>
        <mxCell id="Trnzre_r4BiW6Tw0E5rN-189" value="" style="strokeWidth=1;html=1;shape=mxgraph.flowchart.start_1;whiteSpace=wrap;labelBackgroundColor=none;fontSize=5;fillColor=none;rotation=90;dashed=1;strokeColor=#4C0099;fontStyle=1" parent="1" vertex="1">
          <mxGeometry x="142.31" y="411.79" width="3.94" height="28.51" as="geometry" />
        </mxCell>
        <mxCell id="Trnzre_r4BiW6Tw0E5rN-190" value="&lt;h6 style=&quot;&quot;&gt;&lt;font style=&quot;line-height: 0.2; font-weight: normal; font-size: 10px;&quot;&gt;gRPC concurrent broadcast&lt;/font&gt;&lt;/h6&gt;" style="text;html=1;strokeColor=none;fillColor=none;align=center;verticalAlign=middle;whiteSpace=wrap;rounded=0;" parent="1" vertex="1">
          <mxGeometry x="142.25" y="410" width="170.75" height="32" as="geometry" />
        </mxCell>
        <mxCell id="Trnzre_r4BiW6Tw0E5rN-220" value="&lt;h6 style=&quot;&quot;&gt;&lt;font style=&quot;font-weight: normal; font-size: 10px;&quot;&gt;client 1&lt;/font&gt;&lt;/h6&gt;" style="text;html=1;strokeColor=none;fillColor=none;align=center;verticalAlign=middle;whiteSpace=wrap;rounded=0;" parent="1" vertex="1">
          <mxGeometry x="117.25" y="464" width="60" height="55" as="geometry" />
        </mxCell>
        <mxCell id="Trnzre_r4BiW6Tw0E5rN-232" value="" style="shape=curlyBracket;whiteSpace=wrap;html=1;rounded=1;flipH=0;rotation=-90;flipV=1;" parent="1" vertex="1">
          <mxGeometry x="543" y="553.5" width="6" height="2" as="geometry" />
        </mxCell>
        <mxCell id="Trnzre_r4BiW6Tw0E5rN-237" value="&lt;h6 style=&quot;&quot;&gt;&lt;font style=&quot;font-size: 10px; font-weight: normal;&quot;&gt;time&lt;/font&gt;&lt;/h6&gt;" style="text;html=1;strokeColor=none;fillColor=none;align=center;verticalAlign=middle;whiteSpace=wrap;rounded=0;" parent="1" vertex="1">
          <mxGeometry x="539" y="652" width="60" height="55" as="geometry" />
        </mxCell>
        <mxCell id="Trnzre_r4BiW6Tw0E5rN-258" value="" style="shape=curlyBracket;whiteSpace=wrap;html=1;rounded=1;flipH=1;rotation=90;" parent="1" vertex="1">
          <mxGeometry x="222" y="641.45" width="12" height="104" as="geometry" />
        </mxCell>
        <mxCell id="Trnzre_r4BiW6Tw0E5rN-263" value="&lt;h6 style=&quot;&quot;&gt;&lt;span style=&quot;font-weight: 400;&quot;&gt;&lt;font style=&quot;font-size: 10px;&quot;&gt;Execute latency&lt;/font&gt;&lt;/span&gt;&lt;/h6&gt;" style="text;html=1;strokeColor=none;fillColor=none;align=center;verticalAlign=middle;whiteSpace=wrap;rounded=0;" parent="1" vertex="1">
          <mxGeometry x="186" y="680" width="85" height="55" as="geometry" />
        </mxCell>
        <mxCell id="Trnzre_r4BiW6Tw0E5rN-264" value="" style="shape=curlyBracket;whiteSpace=wrap;html=1;rounded=1;flipH=1;rotation=90;" parent="1" vertex="1">
          <mxGeometry x="357" y="612.5" width="14" height="164" as="geometry" />
        </mxCell>
        <UserObject label="&lt;font color=&quot;#ff0000&quot; style=&quot;&quot;&gt;&lt;span style=&quot;font-size: 10px;&quot;&gt;t&lt;/span&gt;&lt;span style=&quot;font-size: 8.33333px;&quot;&gt;4&lt;/span&gt;&lt;/font&gt;" placeholders="1" name="Variable" id="Trnzre_r4BiW6Tw0E5rN-265">
          <mxCell style="text;html=1;strokeColor=none;fillColor=none;align=center;verticalAlign=middle;whiteSpace=wrap;overflow=hidden;dashed=1;labelBackgroundColor=none;fontSize=5;fontColor=#000000;" parent="1" vertex="1">
            <mxGeometry x="245" y="671" width="80" height="20" as="geometry" />
          </mxCell>
        </UserObject>
        <mxCell id="Trnzre_r4BiW6Tw0E5rN-266" value="&lt;h6 style=&quot;&quot;&gt;&lt;font size=&quot;1&quot; style=&quot;&quot;&gt;&lt;span style=&quot;font-weight: normal;&quot;&gt;Order latency&lt;/span&gt;&lt;/font&gt;&lt;/h6&gt;" style="text;html=1;strokeColor=none;fillColor=none;align=center;verticalAlign=middle;whiteSpace=wrap;rounded=0;" parent="1" vertex="1">
          <mxGeometry x="328.25" y="681" width="83.75" height="55" as="geometry" />
        </mxCell>
        <mxCell id="Trnzre_r4BiW6Tw0E5rN-268" value="&lt;h6 style=&quot;&quot;&gt;&lt;font size=&quot;1&quot; style=&quot;&quot;&gt;&lt;span style=&quot;font-weight: normal;&quot;&gt;Validate latency&lt;/span&gt;&lt;/font&gt;&lt;/h6&gt;" style="text;html=1;strokeColor=none;fillColor=none;align=center;verticalAlign=middle;whiteSpace=wrap;rounded=0;" parent="1" vertex="1">
          <mxGeometry x="457.25" y="680" width="84.75" height="55" as="geometry" />
        </mxCell>
        <mxCell id="vXWSQ5Rv11uB9TsXxkIm-41" value="&lt;h6 style=&quot;&quot;&gt;&lt;font style=&quot;font-weight: normal; font-size: 10px;&quot;&gt;OSN&lt;/font&gt;&lt;/h6&gt;" style="text;html=1;strokeColor=none;fillColor=none;align=center;verticalAlign=middle;whiteSpace=wrap;rounded=0;" parent="1" vertex="1">
          <mxGeometry x="134" y="548" width="15.25" height="55" as="geometry" />
        </mxCell>
        <mxCell id="vXWSQ5Rv11uB9TsXxkIm-64" value="" style="endArrow=classic;html=1;rounded=0;fontSize=7;strokeColor=#000000;strokeWidth=1;endSize=3;startSize=3;" parent="1" edge="1">
          <mxGeometry width="50" height="50" relative="1" as="geometry">
            <mxPoint x="173" y="670" as="sourcePoint" />
            <mxPoint x="577" y="670" as="targetPoint" />
          </mxGeometry>
        </mxCell>
        <UserObject label="&lt;font color=&quot;#ff0000&quot; style=&quot;&quot;&gt;&lt;span style=&quot;font-size: 10px;&quot;&gt;t&lt;/span&gt;&lt;span style=&quot;font-size: 8.33333px;&quot;&gt;1&lt;/span&gt;&lt;/font&gt;" placeholders="1" name="Variable" id="vXWSQ5Rv11uB9TsXxkIm-89">
          <mxCell style="text;html=1;strokeColor=none;fillColor=none;align=center;verticalAlign=middle;whiteSpace=wrap;overflow=hidden;dashed=1;labelBackgroundColor=none;fontSize=5;fontColor=#000000;" parent="1" vertex="1">
            <mxGeometry x="137" y="671" width="80" height="20" as="geometry" />
          </mxCell>
        </UserObject>
        <mxCell id="Trnzre_r4BiW6Tw0E5rN-50" value="" style="endArrow=classicThin;html=1;rounded=0;fontSize=1;fontColor=#000000;strokeColor=#000000;strokeWidth=0.5;endSize=2;startSize=2;jumpSize=3;endFill=1;" parent="1" edge="1">
          <mxGeometry width="50" height="50" relative="1" as="geometry">
            <mxPoint x="191" y="494" as="sourcePoint" />
            <mxPoint x="222" y="532" as="targetPoint" />
          </mxGeometry>
        </mxCell>
        <mxCell id="Ra1UkYBC7Bc8kQ_S5JcI-10" value="&lt;h6 style=&quot;&quot;&gt;&lt;font style=&quot;font-weight: normal; font-size: 10px;&quot;&gt;peer&lt;/font&gt;&lt;/h6&gt;" style="text;html=1;strokeColor=none;fillColor=none;align=center;verticalAlign=middle;whiteSpace=wrap;rounded=0;" parent="1" vertex="1">
          <mxGeometry x="115.25" y="514" width="60" height="55" as="geometry" />
        </mxCell>
        <mxCell id="Ra1UkYBC7Bc8kQ_S5JcI-31" value="" style="verticalLabelPosition=bottom;verticalAlign=top;html=1;shape=mxgraph.basic.rect;fillColor2=none;strokeWidth=1;size=20;indent=5;fontSize=7;fillColor=#b1ddf0;strokeColor=#10739e;" parent="1" vertex="1">
          <mxGeometry x="332" y="567.8" width="20" height="8" as="geometry" />
        </mxCell>
        <mxCell id="vXWSQ5Rv11uB9TsXxkIm-88" value="" style="endArrow=classic;html=1;rounded=0;fontSize=1;fontColor=#000000;strokeColor=#000000;strokeWidth=1;endSize=2;startSize=2;jumpSize=3;" parent="1" edge="1">
          <mxGeometry width="50" height="50" relative="1" as="geometry">
            <mxPoint x="448" y="583" as="sourcePoint" />
            <mxPoint x="520" y="542" as="targetPoint" />
          </mxGeometry>
        </mxCell>
        <mxCell id="Ra1UkYBC7Bc8kQ_S5JcI-63" value="" style="shape=curlyBracket;whiteSpace=wrap;html=1;rounded=1;flipH=1;rotation=90;" parent="1" vertex="1">
          <mxGeometry x="490.88" y="643.88" width="14" height="100" as="geometry" />
        </mxCell>
        <mxCell id="Ra1UkYBC7Bc8kQ_S5JcI-69" value="&lt;font style=&quot;font-size: 8px;&quot;&gt;$$tx1$$&lt;/font&gt;" style="text;html=1;strokeColor=none;fillColor=none;align=center;verticalAlign=middle;whiteSpace=wrap;rounded=0;fontColor=#000000;" parent="1" vertex="1">
          <mxGeometry x="313.25" y="560" width="60" height="22" as="geometry" />
        </mxCell>
        <mxCell id="vXWSQ5Rv11uB9TsXxkIm-30" value="" style="strokeWidth=1;html=1;shape=mxgraph.flowchart.start_1;whiteSpace=wrap;labelBackgroundColor=none;fontSize=5;rotation=15;fillColor=none;strokeColor=#CC6600;" parent="1" vertex="1">
          <mxGeometry x="207.31" y="505.79" width="3.94" height="28.51" as="geometry" />
        </mxCell>
        <mxCell id="vXWSQ5Rv11uB9TsXxkIm-38" value="" style="strokeWidth=1;html=1;shape=mxgraph.flowchart.start_1;whiteSpace=wrap;labelBackgroundColor=none;fontSize=5;fontColor=#000000;fillColor=none;rotation=-15;strokeColor=#CC6600;" parent="1" vertex="1">
          <mxGeometry x="259.66" y="505.74" width="3.94" height="31.21" as="geometry" />
        </mxCell>
        <mxCell id="vXWSQ5Rv11uB9TsXxkIm-53" value="" style="strokeWidth=1;html=1;shape=mxgraph.flowchart.start_1;whiteSpace=wrap;labelBackgroundColor=none;fontSize=5;fillColor=none;rotation=15;strokeColor=#CC6600;" parent="1" vertex="1">
          <mxGeometry x="292.31" y="506.78999999999996" width="3.94" height="28.51" as="geometry" />
        </mxCell>
        <mxCell id="aoACPO_KVNHL25JApvIy-1" value="&lt;h6 style=&quot;&quot;&gt;&lt;font style=&quot;font-weight: normal; font-size: 10px;&quot;&gt;leader&lt;/font&gt;&lt;/h6&gt;" style="text;html=1;strokeColor=none;fillColor=none;align=center;verticalAlign=middle;whiteSpace=wrap;rounded=0;" parent="1" vertex="1">
          <mxGeometry x="123" y="558" width="36.25" height="55" as="geometry" />
        </mxCell>
        <mxCell id="aoACPO_KVNHL25JApvIy-4" value="&lt;h6 style=&quot;&quot;&gt;&lt;font style=&quot;font-weight: normal; font-size: 10px;&quot;&gt;OSN&lt;/font&gt;&lt;/h6&gt;" style="text;html=1;strokeColor=none;fillColor=none;align=center;verticalAlign=middle;whiteSpace=wrap;rounded=0;" parent="1" vertex="1">
          <mxGeometry x="131" y="583" width="22.25" height="55" as="geometry" />
        </mxCell>
        <mxCell id="aoACPO_KVNHL25JApvIy-5" value="&lt;h6 style=&quot;&quot;&gt;&lt;font style=&quot;font-weight: normal; font-size: 10px;&quot;&gt;follower 1&lt;/font&gt;&lt;/h6&gt;" style="text;html=1;strokeColor=none;fillColor=none;align=center;verticalAlign=middle;whiteSpace=wrap;rounded=0;" parent="1" vertex="1">
          <mxGeometry x="121" y="593" width="48.25" height="55" as="geometry" />
        </mxCell>
        <mxCell id="aoACPO_KVNHL25JApvIy-6" value="&lt;h6 style=&quot;&quot;&gt;&lt;font style=&quot;font-weight: normal; font-size: 10px;&quot;&gt;follower 2&lt;/font&gt;&lt;/h6&gt;" style="text;html=1;strokeColor=none;fillColor=none;align=center;verticalAlign=middle;whiteSpace=wrap;rounded=0;" parent="1" vertex="1">
          <mxGeometry x="122" y="625" width="47.25" height="55" as="geometry" />
        </mxCell>
        <mxCell id="aoACPO_KVNHL25JApvIy-7" value="&lt;h6 style=&quot;&quot;&gt;&lt;font style=&quot;font-weight: normal; font-size: 10px;&quot;&gt;OSN&lt;/font&gt;&lt;/h6&gt;" style="text;html=1;strokeColor=none;fillColor=none;align=center;verticalAlign=middle;whiteSpace=wrap;rounded=0;" parent="1" vertex="1">
          <mxGeometry x="129" y="615" width="28.25" height="55" as="geometry" />
        </mxCell>
        <mxCell id="FMVHNKBBkChkBREBz5Vj-24" value="" style="endArrow=none;html=1;rounded=0;fontSize=7;strokeColor=#000000;strokeWidth=1;fillColor=#dae8fc;" parent="1" edge="1">
          <mxGeometry width="50" height="50" relative="1" as="geometry">
            <mxPoint x="247" y="670" as="sourcePoint" />
            <mxPoint x="227" y="670" as="targetPoint" />
          </mxGeometry>
        </mxCell>
        <mxCell id="FMVHNKBBkChkBREBz5Vj-28" value="&lt;h6 style=&quot;font-size: 10px;&quot;&gt;&lt;span style=&quot;font-weight: 400;&quot;&gt;Cut a block&lt;/span&gt;&lt;/h6&gt;" style="text;html=1;strokeColor=none;fillColor=none;align=center;verticalAlign=middle;whiteSpace=wrap;rounded=0;" parent="1" vertex="1">
          <mxGeometry x="389.25" y="531" width="60" height="55" as="geometry" />
        </mxCell>
        <UserObject label="&lt;font color=&quot;#ff0000&quot;&gt;&lt;span style=&quot;font-size: 10px;&quot;&gt;t&lt;/span&gt;&lt;span style=&quot;font-size: 8.33333px;&quot;&gt;8&lt;/span&gt;&lt;/font&gt;" placeholders="1" name="Variable" id="HjVRoFES-z4ZsDLajOuJ-17">
          <mxCell style="text;html=1;strokeColor=none;fillColor=none;align=center;verticalAlign=middle;whiteSpace=wrap;overflow=hidden;dashed=1;labelBackgroundColor=none;fontSize=5;fontColor=#000000;" parent="1" vertex="1">
            <mxGeometry x="410" y="670" width="80" height="20" as="geometry" />
          </mxCell>
        </UserObject>
        <UserObject label="&lt;span style=&quot;font-size: 10px;&quot;&gt;t&lt;/span&gt;&lt;span style=&quot;font-size: 8.33333px;&quot;&gt;10&lt;/span&gt;" placeholders="1" name="Variable" id="HjVRoFES-z4ZsDLajOuJ-19">
          <mxCell style="text;html=1;strokeColor=none;fillColor=none;align=center;verticalAlign=middle;whiteSpace=wrap;overflow=hidden;dashed=1;labelBackgroundColor=none;fontSize=5;fontColor=#000000;" parent="1" vertex="1">
            <mxGeometry x="505" y="670" width="80" height="20" as="geometry" />
          </mxCell>
        </UserObject>
        <mxCell id="R_TfO7n2XVrTC__6ODI5-11" value="" style="rounded=1;whiteSpace=wrap;html=1;" parent="1" vertex="1">
          <mxGeometry x="413" y="566" width="33" height="31" as="geometry" />
        </mxCell>
        <mxCell id="FMVHNKBBkChkBREBz5Vj-29" value="&lt;h6 style=&quot;font-size: 10px;&quot;&gt;&lt;span style=&quot;font-weight: 400;&quot;&gt;Commit a block&lt;/span&gt;&lt;/h6&gt;" style="text;html=1;strokeColor=none;fillColor=none;align=center;verticalAlign=middle;whiteSpace=wrap;rounded=0;" parent="1" vertex="1">
          <mxGeometry x="498.25" y="535" width="73.75" height="55" as="geometry" />
        </mxCell>
        <UserObject label="&lt;font color=&quot;#0000cc&quot;&gt;&lt;span style=&quot;font-size: 10px;&quot;&gt;t&lt;/span&gt;&lt;span style=&quot;font-size: 8.33333px;&quot;&gt;7&lt;/span&gt;&lt;/font&gt;" placeholders="1" name="Variable" id="R_TfO7n2XVrTC__6ODI5-14">
          <mxCell style="text;html=1;strokeColor=none;fillColor=none;align=center;verticalAlign=middle;whiteSpace=wrap;overflow=hidden;dashed=1;labelBackgroundColor=none;fontSize=5;fontColor=#000000;" parent="1" vertex="1">
            <mxGeometry x="398" y="670" width="80" height="20" as="geometry" />
          </mxCell>
        </UserObject>
        <UserObject label="&lt;font color=&quot;#ff0000&quot; style=&quot;&quot;&gt;&lt;span style=&quot;font-size: 10px;&quot;&gt;t&lt;/span&gt;&lt;span style=&quot;font-size: 8.33333px;&quot;&gt;2&lt;/span&gt;&lt;/font&gt;" placeholders="1" name="Variable" id="PxduduCyMUjNgnI8uYfy-7">
          <mxCell style="text;html=1;strokeColor=none;fillColor=none;align=center;verticalAlign=middle;whiteSpace=wrap;overflow=hidden;dashed=1;labelBackgroundColor=none;fontSize=5;fontColor=#000000;" parent="1" vertex="1">
            <mxGeometry x="186" y="671" width="80" height="20" as="geometry" />
          </mxCell>
        </UserObject>
        <UserObject label="&lt;font color=&quot;#ff0000&quot; style=&quot;&quot;&gt;&lt;span style=&quot;font-size: 10px;&quot;&gt;t&lt;/span&gt;&lt;span style=&quot;font-size: 8.33333px;&quot;&gt;3&lt;/span&gt;&lt;/font&gt;" placeholders="1" name="Variable" id="PxduduCyMUjNgnI8uYfy-8">
          <mxCell style="text;html=1;strokeColor=none;fillColor=none;align=center;verticalAlign=middle;whiteSpace=wrap;overflow=hidden;dashed=1;labelBackgroundColor=none;fontSize=5;fontColor=#000000;" parent="1" vertex="1">
            <mxGeometry x="207" y="671" width="80" height="20" as="geometry" />
          </mxCell>
        </UserObject>
        <UserObject label="&lt;font color=&quot;#ff0000&quot; style=&quot;&quot;&gt;&lt;span style=&quot;font-size: 10px;&quot;&gt;t&lt;/span&gt;&lt;span style=&quot;font-size: 8.33333px;&quot;&gt;5&lt;/span&gt;&lt;/font&gt;" placeholders="1" name="Variable" id="PxduduCyMUjNgnI8uYfy-11">
          <mxCell style="text;html=1;strokeColor=none;fillColor=none;align=center;verticalAlign=middle;whiteSpace=wrap;overflow=hidden;dashed=1;labelBackgroundColor=none;fontSize=5;fontColor=#000000;" parent="1" vertex="1">
            <mxGeometry x="296" y="671" width="80" height="20" as="geometry" />
          </mxCell>
        </UserObject>
        <UserObject label="&lt;font color=&quot;#ff0000&quot; style=&quot;&quot;&gt;&lt;span style=&quot;font-size: 10px;&quot;&gt;t&lt;/span&gt;&lt;span style=&quot;font-size: 8.33333px;&quot;&gt;6&lt;/span&gt;&lt;/font&gt;" placeholders="1" name="Variable" id="PxduduCyMUjNgnI8uYfy-17">
          <mxCell style="text;html=1;strokeColor=none;fillColor=none;align=center;verticalAlign=middle;whiteSpace=wrap;overflow=hidden;dashed=1;labelBackgroundColor=none;fontSize=5;fontColor=#000000;" parent="1" vertex="1">
            <mxGeometry x="377" y="670" width="80" height="20" as="geometry" />
          </mxCell>
        </UserObject>
        <UserObject label="&lt;font color=&quot;#ff0000&quot;&gt;&lt;span style=&quot;font-size: 10px;&quot;&gt;t&lt;/span&gt;&lt;span style=&quot;font-size: 8.33333px;&quot;&gt;9&lt;/span&gt;&lt;/font&gt;" placeholders="1" name="Variable" id="PxduduCyMUjNgnI8uYfy-20">
          <mxCell style="text;html=1;strokeColor=none;fillColor=none;align=center;verticalAlign=middle;whiteSpace=wrap;overflow=hidden;dashed=1;labelBackgroundColor=none;fontSize=5;fontColor=#000000;" parent="1" vertex="1">
            <mxGeometry x="482" y="670" width="80" height="20" as="geometry" />
          </mxCell>
        </UserObject>
        <mxCell id="wejyW3TpLPZqRhK-sgEW-1" value="" style="rounded=0;whiteSpace=wrap;html=1;fillColor=#0000CC;" parent="1" vertex="1">
          <mxGeometry x="438" y="668" width="8" height="3" as="geometry" />
        </mxCell>
        <mxCell id="wejyW3TpLPZqRhK-sgEW-5" value="" style="rounded=0;whiteSpace=wrap;html=1;fillColor=#FF0000;" parent="1" vertex="1">
          <mxGeometry x="446" y="668" width="77" height="3" as="geometry" />
        </mxCell>
        <mxCell id="wejyW3TpLPZqRhK-sgEW-7" value="" style="rounded=0;whiteSpace=wrap;html=1;fillColor=#FF0000;" parent="1" vertex="1">
          <mxGeometry x="175" y="668" width="51" height="3" as="geometry" />
        </mxCell>
        <mxCell id="wejyW3TpLPZqRhK-sgEW-8" value="" style="rounded=0;whiteSpace=wrap;html=1;fillColor=#00CC00;" parent="1" vertex="1">
          <mxGeometry x="227" y="668" width="20" height="3" as="geometry" />
        </mxCell>
        <mxCell id="wejyW3TpLPZqRhK-sgEW-9" value="" style="rounded=0;whiteSpace=wrap;html=1;fillColor=#FF0000;" parent="1" vertex="1">
          <mxGeometry x="247" y="668" width="34" height="3" as="geometry" />
        </mxCell>
        <mxCell id="wejyW3TpLPZqRhK-sgEW-10" value="" style="rounded=0;whiteSpace=wrap;html=1;fillColor=#FF0000;" parent="1" vertex="1">
          <mxGeometry x="282" y="668" width="53" height="3" as="geometry" />
        </mxCell>
        <mxCell id="wejyW3TpLPZqRhK-sgEW-11" value="" style="rounded=0;whiteSpace=wrap;html=1;fillColor=#FF0000;" parent="1" vertex="1">
          <mxGeometry x="336" y="668" width="82" height="3" as="geometry" />
        </mxCell>
        <mxCell id="wejyW3TpLPZqRhK-sgEW-15" value="" style="rounded=0;whiteSpace=wrap;html=1;fillColor=#0000CC;" parent="1" vertex="1">
          <mxGeometry x="438" y="578" width="8" height="3" as="geometry" />
        </mxCell>
        <mxCell id="wejyW3TpLPZqRhK-sgEW-18" value="" style="rounded=0;whiteSpace=wrap;html=1;fillColor=#00CC00;" parent="1" vertex="1">
          <mxGeometry x="418" y="668" width="6.7" height="3" as="geometry" />
        </mxCell>
        <mxCell id="wejyW3TpLPZqRhK-sgEW-21" value="" style="rounded=0;whiteSpace=wrap;html=1;fillColor=#00CC00;" parent="1" vertex="1">
          <mxGeometry x="425" y="668" width="6.7" height="3" as="geometry" />
        </mxCell>
        <mxCell id="wejyW3TpLPZqRhK-sgEW-22" value="" style="rounded=0;whiteSpace=wrap;html=1;fillColor=#00CC00;" parent="1" vertex="1">
          <mxGeometry x="432" y="668" width="6" height="3" as="geometry" />
        </mxCell>
        <mxCell id="wejyW3TpLPZqRhK-sgEW-24" value="" style="rounded=0;whiteSpace=wrap;html=1;fillColor=#00CC00;" parent="1" vertex="1">
          <mxGeometry x="523" y="668" width="8" height="3" as="geometry" />
        </mxCell>
        <mxCell id="wejyW3TpLPZqRhK-sgEW-25" value="" style="rounded=0;whiteSpace=wrap;html=1;fillColor=#00CC00;" parent="1" vertex="1">
          <mxGeometry x="531" y="668" width="7.4" height="3" as="geometry" />
        </mxCell>
        <mxCell id="wejyW3TpLPZqRhK-sgEW-27" value="" style="rounded=0;whiteSpace=wrap;html=1;fillColor=#00CC00;" parent="1" vertex="1">
          <mxGeometry x="539" y="668" width="8" height="3" as="geometry" />
        </mxCell>
        <mxCell id="yO8zG4FUuS4UY9r1wQg6-3" value="" style="endArrow=none;html=1;rounded=0;strokeWidth=0.5;" parent="1" edge="1">
          <mxGeometry width="50" height="50" relative="1" as="geometry">
            <mxPoint x="227" y="670" as="sourcePoint" />
            <mxPoint x="247" y="670" as="targetPoint" />
          </mxGeometry>
        </mxCell>
        <mxCell id="yO8zG4FUuS4UY9r1wQg6-4" value="" style="endArrow=none;html=1;rounded=0;strokeWidth=0.5;" parent="1" edge="1">
          <mxGeometry width="50" height="50" relative="1" as="geometry">
            <mxPoint x="227" y="669.15" as="sourcePoint" />
            <mxPoint x="247" y="669.15" as="targetPoint" />
          </mxGeometry>
        </mxCell>
        <mxCell id="pCSCM9EgIc3GYl6bfJL9-2" value="" style="endArrow=none;html=1;rounded=0;fontSize=7;strokeColor=#000000;strokeWidth=1;fillColor=#dae8fc;" parent="1" edge="1">
          <mxGeometry width="50" height="50" relative="1" as="geometry">
            <mxPoint x="333" y="425" as="sourcePoint" />
            <mxPoint x="313" y="425" as="targetPoint" />
          </mxGeometry>
        </mxCell>
        <mxCell id="pCSCM9EgIc3GYl6bfJL9-3" value="" style="rounded=0;whiteSpace=wrap;html=1;fillColor=#00CC00;" parent="1" vertex="1">
          <mxGeometry x="313" y="423" width="20" height="3" as="geometry" />
        </mxCell>
        <mxCell id="pCSCM9EgIc3GYl6bfJL9-4" value="" style="endArrow=none;html=1;rounded=0;strokeWidth=0.5;" parent="1" edge="1">
          <mxGeometry width="50" height="50" relative="1" as="geometry">
            <mxPoint x="313" y="425" as="sourcePoint" />
            <mxPoint x="333" y="425" as="targetPoint" />
          </mxGeometry>
        </mxCell>
        <mxCell id="pCSCM9EgIc3GYl6bfJL9-5" value="" style="endArrow=none;html=1;rounded=0;strokeWidth=0.5;" parent="1" edge="1">
          <mxGeometry width="50" height="50" relative="1" as="geometry">
            <mxPoint x="313" y="424.15" as="sourcePoint" />
            <mxPoint x="333" y="424.15" as="targetPoint" />
          </mxGeometry>
        </mxCell>
        <mxCell id="pCSCM9EgIc3GYl6bfJL9-6" value="" style="rounded=0;whiteSpace=wrap;html=1;fillColor=#00CC00;" parent="1" vertex="1">
          <mxGeometry x="313" y="441" width="7.4" height="3" as="geometry" />
        </mxCell>
        <mxCell id="pCSCM9EgIc3GYl6bfJL9-7" value="" style="rounded=0;whiteSpace=wrap;html=1;fillColor=#00CC00;" parent="1" vertex="1">
          <mxGeometry x="320" y="441" width="7.4" height="3" as="geometry" />
        </mxCell>
        <mxCell id="pCSCM9EgIc3GYl6bfJL9-8" value="" style="rounded=0;whiteSpace=wrap;html=1;fillColor=#00CC00;" parent="1" vertex="1">
          <mxGeometry x="327" y="441" width="6" height="3" as="geometry" />
        </mxCell>
        <mxCell id="Fxq-wvsZDKYLinho3GOP-8" value="" style="endArrow=classicThin;html=1;rounded=0;fontSize=1;fontColor=#000000;strokeColor=#000000;strokeWidth=0.5;endSize=2;startSize=2;jumpSize=3;endFill=1;" parent="1" edge="1">
          <mxGeometry width="50" height="50" relative="1" as="geometry">
            <mxPoint x="195" y="502" as="sourcePoint" />
            <mxPoint x="226" y="540" as="targetPoint" />
          </mxGeometry>
        </mxCell>
        <mxCell id="Fxq-wvsZDKYLinho3GOP-9" value="" style="endArrow=classicThin;html=1;rounded=0;fontSize=1;fontColor=#000000;strokeColor=#000000;strokeWidth=0.5;endSize=2;startSize=2;jumpSize=3;endFill=1;" parent="1" edge="1">
          <mxGeometry width="50" height="50" relative="1" as="geometry">
            <mxPoint x="199" y="510" as="sourcePoint" />
            <mxPoint x="230" y="548" as="targetPoint" />
          </mxGeometry>
        </mxCell>
        <mxCell id="Ra1UkYBC7Bc8kQ_S5JcI-3" value="" style="verticalLabelPosition=bottom;verticalAlign=top;html=1;shape=mxgraph.basic.rect;fillColor2=none;strokeWidth=1;size=20;indent=5;fontSize=7;fillColor=#fad9d5;strokeColor=#ae4132;" parent="1" vertex="1">
          <mxGeometry x="175" y="498.3299999999999" width="20" height="8" as="geometry" />
        </mxCell>
        <mxCell id="Ra1UkYBC7Bc8kQ_S5JcI-4" value="" style="verticalLabelPosition=bottom;verticalAlign=top;html=1;shape=mxgraph.basic.rect;fillColor2=none;strokeWidth=1;size=20;indent=5;fontSize=7;fillColor=#fad9d5;strokeColor=#ae4132;" parent="1" vertex="1">
          <mxGeometry x="179" y="506.3299999999999" width="20" height="8" as="geometry" />
        </mxCell>
        <mxCell id="Trnzre_r4BiW6Tw0E5rN-113" value="" style="verticalLabelPosition=bottom;verticalAlign=top;html=1;shape=mxgraph.basic.rect;fillColor2=none;strokeWidth=1;size=20;indent=5;fontSize=7;fillColor=#fad9d5;strokeColor=#ae4132;" parent="1" vertex="1">
          <mxGeometry x="171" y="490.33" width="20" height="8" as="geometry" />
        </mxCell>
        <mxCell id="Ra1UkYBC7Bc8kQ_S5JcI-11" value="" style="verticalLabelPosition=bottom;verticalAlign=top;html=1;shape=mxgraph.basic.rect;fillColor2=none;strokeWidth=1;size=20;indent=5;fontSize=7;fillColor=#fad9d5;strokeColor=#ae4132;" parent="1" vertex="1">
          <mxGeometry x="223" y="527.3299999999999" width="20" height="8" as="geometry" />
        </mxCell>
        <mxCell id="Fxq-wvsZDKYLinho3GOP-6" value="" style="verticalLabelPosition=bottom;verticalAlign=top;html=1;shape=mxgraph.basic.rect;fillColor2=none;strokeWidth=1;size=20;indent=5;fontSize=7;fillColor=#fad9d5;strokeColor=#ae4132;" parent="1" vertex="1">
          <mxGeometry x="227" y="535.3299999999999" width="20" height="8" as="geometry" />
        </mxCell>
        <mxCell id="Fxq-wvsZDKYLinho3GOP-7" value="" style="verticalLabelPosition=bottom;verticalAlign=top;html=1;shape=mxgraph.basic.rect;fillColor2=none;strokeWidth=1;size=20;indent=5;fontSize=7;fillColor=#fad9d5;strokeColor=#ae4132;" parent="1" vertex="1">
          <mxGeometry x="231" y="543.3299999999999" width="20" height="8" as="geometry" />
        </mxCell>
        <mxCell id="Fxq-wvsZDKYLinho3GOP-10" value="" style="endArrow=classicThin;html=1;rounded=0;fontSize=1;fontColor=#000000;strokeColor=#000000;strokeWidth=0.5;endSize=2;startSize=2;jumpSize=3;endFill=1;" parent="1" edge="1">
          <mxGeometry width="50" height="50" relative="1" as="geometry">
            <mxPoint x="243" y="532.0000000000001" as="sourcePoint" />
            <mxPoint x="274" y="494" as="targetPoint" />
          </mxGeometry>
        </mxCell>
        <mxCell id="Fxq-wvsZDKYLinho3GOP-11" value="" style="endArrow=classicThin;html=1;rounded=0;fontSize=1;fontColor=#000000;strokeColor=#000000;strokeWidth=0.5;endSize=2;startSize=2;jumpSize=3;endFill=1;" parent="1" edge="1">
          <mxGeometry width="50" height="50" relative="1" as="geometry">
            <mxPoint x="247" y="540.0000000000001" as="sourcePoint" />
            <mxPoint x="278" y="502" as="targetPoint" />
          </mxGeometry>
        </mxCell>
        <mxCell id="Fxq-wvsZDKYLinho3GOP-12" value="" style="endArrow=classicThin;html=1;rounded=0;fontSize=1;fontColor=#000000;strokeColor=#000000;strokeWidth=0.5;endSize=2;startSize=2;jumpSize=3;endFill=1;" parent="1" edge="1">
          <mxGeometry width="50" height="50" relative="1" as="geometry">
            <mxPoint x="251" y="548.0000000000001" as="sourcePoint" />
            <mxPoint x="282" y="510" as="targetPoint" />
          </mxGeometry>
        </mxCell>
        <mxCell id="Fxq-wvsZDKYLinho3GOP-14" value="" style="verticalLabelPosition=bottom;verticalAlign=top;html=1;shape=mxgraph.basic.rect;fillColor2=none;strokeWidth=1;size=20;indent=5;fontSize=7;fillColor=#A38E8B;strokeColor=#8C3428;" parent="1" vertex="1">
          <mxGeometry x="279" y="500.33" width="2" height="4" as="geometry" />
        </mxCell>
        <mxCell id="Fxq-wvsZDKYLinho3GOP-15" value="" style="verticalLabelPosition=bottom;verticalAlign=top;html=1;shape=mxgraph.basic.rect;fillColor2=none;strokeWidth=1;size=20;indent=5;fontSize=7;fillColor=#A38E8B;strokeColor=#8C3428;" parent="1" vertex="1">
          <mxGeometry x="283" y="509.3299999999999" width="2" height="4" as="geometry" />
        </mxCell>
        <mxCell id="Fxq-wvsZDKYLinho3GOP-16" value="" style="endArrow=classicThin;html=1;rounded=0;fontSize=1;fontColor=#000000;strokeColor=#000000;strokeWidth=0.5;endSize=2;startSize=2;jumpSize=3;endFill=1;" parent="1" edge="1">
          <mxGeometry width="50" height="50" relative="1" as="geometry">
            <mxPoint x="278" y="494" as="sourcePoint" />
            <mxPoint x="331" y="572" as="targetPoint" />
          </mxGeometry>
        </mxCell>
        <mxCell id="Fxq-wvsZDKYLinho3GOP-21" value="" style="verticalLabelPosition=bottom;verticalAlign=top;html=1;shape=mxgraph.basic.rect;fillColor2=none;strokeWidth=1;size=20;indent=5;fontSize=7;fillColor=#b1ddf0;strokeColor=#10739e;" parent="1" vertex="1">
          <mxGeometry x="336" y="575.8" width="20" height="8" as="geometry" />
        </mxCell>
        <mxCell id="Fxq-wvsZDKYLinho3GOP-22" value="" style="verticalLabelPosition=bottom;verticalAlign=top;html=1;shape=mxgraph.basic.rect;fillColor2=none;strokeWidth=1;size=20;indent=5;fontSize=7;fillColor=#b1ddf0;strokeColor=#10739e;" parent="1" vertex="1">
          <mxGeometry x="340" y="583.8" width="20" height="8" as="geometry" />
        </mxCell>
        <mxCell id="Fxq-wvsZDKYLinho3GOP-23" value="" style="endArrow=classicThin;html=1;rounded=0;fontSize=1;fontColor=#000000;strokeColor=#000000;strokeWidth=0.5;endSize=2;startSize=2;jumpSize=3;endFill=1;" parent="1" edge="1">
          <mxGeometry width="50" height="50" relative="1" as="geometry">
            <mxPoint x="282" y="503" as="sourcePoint" />
            <mxPoint x="335" y="581" as="targetPoint" />
          </mxGeometry>
        </mxCell>
        <mxCell id="Fxq-wvsZDKYLinho3GOP-24" value="" style="endArrow=classicThin;html=1;rounded=0;fontSize=1;fontColor=#000000;strokeColor=#000000;strokeWidth=0.5;endSize=2;startSize=2;jumpSize=3;endFill=1;" parent="1" edge="1">
          <mxGeometry width="50" height="50" relative="1" as="geometry">
            <mxPoint x="286" y="512" as="sourcePoint" />
            <mxPoint x="339" y="590" as="targetPoint" />
          </mxGeometry>
        </mxCell>
        <mxCell id="Fxq-wvsZDKYLinho3GOP-25" value="" style="rounded=1;whiteSpace=wrap;html=1;strokeWidth=0.5;fillColor=#D5E8D4;strokeColor=#000000;" parent="1" vertex="1">
          <mxGeometry x="171" y="599.4" width="400" height="24.5" as="geometry" />
        </mxCell>
        <mxCell id="Fxq-wvsZDKYLinho3GOP-26" value="" style="verticalLabelPosition=bottom;verticalAlign=top;html=1;shape=mxgraph.basic.rect;fillColor2=none;strokeWidth=1;size=20;indent=5;fontSize=7;fillColor=#b1ddf0;strokeColor=#10739e;" parent="1" vertex="1">
          <mxGeometry x="414" y="599.8" width="20" height="8" as="geometry" />
        </mxCell>
        <mxCell id="Fxq-wvsZDKYLinho3GOP-27" value="" style="verticalLabelPosition=bottom;verticalAlign=top;html=1;shape=mxgraph.basic.rect;fillColor2=none;strokeWidth=1;size=20;indent=5;fontSize=7;fillColor=#b1ddf0;strokeColor=#10739e;" parent="1" vertex="1">
          <mxGeometry x="418" y="607.8" width="20" height="8" as="geometry" />
        </mxCell>
        <mxCell id="Fxq-wvsZDKYLinho3GOP-28" value="" style="verticalLabelPosition=bottom;verticalAlign=top;html=1;shape=mxgraph.basic.rect;fillColor2=none;strokeWidth=1;size=20;indent=5;fontSize=7;fillColor=#b1ddf0;strokeColor=#10739e;" parent="1" vertex="1">
          <mxGeometry x="422" y="615.8" width="20" height="8" as="geometry" />
        </mxCell>
        <mxCell id="Fxq-wvsZDKYLinho3GOP-29" value="" style="rounded=1;whiteSpace=wrap;html=1;strokeWidth=0.5;fillColor=#D5E8D4;strokeColor=#000000;" parent="1" vertex="1">
          <mxGeometry x="171" y="631.4" width="400" height="24.5" as="geometry" />
        </mxCell>
        <mxCell id="Fxq-wvsZDKYLinho3GOP-30" value="" style="verticalLabelPosition=bottom;verticalAlign=top;html=1;shape=mxgraph.basic.rect;fillColor2=none;strokeWidth=1;size=20;indent=5;fontSize=7;fillColor=#b1ddf0;strokeColor=#10739e;" parent="1" vertex="1">
          <mxGeometry x="414" y="631.8" width="20" height="8" as="geometry" />
        </mxCell>
        <mxCell id="Fxq-wvsZDKYLinho3GOP-31" value="" style="verticalLabelPosition=bottom;verticalAlign=top;html=1;shape=mxgraph.basic.rect;fillColor2=none;strokeWidth=1;size=20;indent=5;fontSize=7;fillColor=#b1ddf0;strokeColor=#10739e;" parent="1" vertex="1">
          <mxGeometry x="418" y="639.8" width="20" height="8" as="geometry" />
        </mxCell>
        <mxCell id="Fxq-wvsZDKYLinho3GOP-32" value="" style="verticalLabelPosition=bottom;verticalAlign=top;html=1;shape=mxgraph.basic.rect;fillColor2=none;strokeWidth=1;size=20;indent=5;fontSize=7;fillColor=#b1ddf0;strokeColor=#10739e;" parent="1" vertex="1">
          <mxGeometry x="422" y="647.8" width="20" height="8" as="geometry" />
        </mxCell>
        <mxCell id="Fxq-wvsZDKYLinho3GOP-33" value="" style="endArrow=classicThin;html=1;rounded=0;fontSize=1;fontColor=#000000;strokeColor=#000000;strokeWidth=0.5;endSize=2;startSize=2;jumpSize=3;endFill=1;" parent="1" edge="1">
          <mxGeometry width="50" height="50" relative="1" as="geometry">
            <mxPoint x="353" y="571" as="sourcePoint" />
            <mxPoint x="412" y="603" as="targetPoint" />
          </mxGeometry>
        </mxCell>
        <mxCell id="Fxq-wvsZDKYLinho3GOP-34" value="" style="endArrow=classicThin;html=1;rounded=0;fontSize=1;fontColor=#000000;strokeColor=#000000;strokeWidth=0.5;endSize=2;startSize=2;jumpSize=3;endFill=1;" parent="1" edge="1">
          <mxGeometry width="50" height="50" relative="1" as="geometry">
            <mxPoint x="357" y="580" as="sourcePoint" />
            <mxPoint x="416" y="612" as="targetPoint" />
          </mxGeometry>
        </mxCell>
        <mxCell id="Fxq-wvsZDKYLinho3GOP-35" value="" style="endArrow=classicThin;html=1;rounded=0;fontSize=1;fontColor=#000000;strokeColor=#000000;strokeWidth=0.5;endSize=2;startSize=2;jumpSize=3;endFill=1;" parent="1" edge="1">
          <mxGeometry width="50" height="50" relative="1" as="geometry">
            <mxPoint x="361" y="589" as="sourcePoint" />
            <mxPoint x="420" y="621" as="targetPoint" />
          </mxGeometry>
        </mxCell>
        <mxCell id="Fxq-wvsZDKYLinho3GOP-36" value="" style="endArrow=classicThin;html=1;rounded=0;fontSize=1;fontColor=#000000;strokeColor=#000000;strokeWidth=0.5;endSize=2;startSize=2;jumpSize=3;endFill=1;" parent="1" edge="1">
          <mxGeometry width="50" height="50" relative="1" as="geometry">
            <mxPoint x="353" y="571" as="sourcePoint" />
            <mxPoint x="412" y="636" as="targetPoint" />
          </mxGeometry>
        </mxCell>
        <mxCell id="Fxq-wvsZDKYLinho3GOP-37" value="" style="endArrow=classicThin;html=1;rounded=0;fontSize=1;fontColor=#000000;strokeColor=#000000;strokeWidth=0.5;endSize=2;startSize=2;jumpSize=3;endFill=1;" parent="1" edge="1">
          <mxGeometry width="50" height="50" relative="1" as="geometry">
            <mxPoint x="357" y="580" as="sourcePoint" />
            <mxPoint x="416" y="645" as="targetPoint" />
          </mxGeometry>
        </mxCell>
        <mxCell id="Fxq-wvsZDKYLinho3GOP-38" value="" style="endArrow=classicThin;html=1;rounded=0;fontSize=1;fontColor=#000000;strokeColor=#000000;strokeWidth=0.5;endSize=2;startSize=2;jumpSize=3;endFill=1;" parent="1" edge="1">
          <mxGeometry width="50" height="50" relative="1" as="geometry">
            <mxPoint x="361" y="589" as="sourcePoint" />
            <mxPoint x="420" y="654" as="targetPoint" />
          </mxGeometry>
        </mxCell>
        <mxCell id="Fxq-wvsZDKYLinho3GOP-39" value="&lt;h6 style=&quot;&quot;&gt;&lt;font style=&quot;font-weight: normal; font-size: 10px;&quot;&gt;client 2&lt;/font&gt;&lt;/h6&gt;" style="text;html=1;strokeColor=none;fillColor=none;align=center;verticalAlign=middle;whiteSpace=wrap;rounded=0;" parent="1" vertex="1">
          <mxGeometry x="117.25" y="475" width="60" height="55" as="geometry" />
        </mxCell>
        <mxCell id="Fxq-wvsZDKYLinho3GOP-40" value="&lt;h6 style=&quot;&quot;&gt;&lt;font style=&quot;font-weight: normal; font-size: 10px;&quot;&gt;client 7&lt;/font&gt;&lt;/h6&gt;" style="text;html=1;strokeColor=none;fillColor=none;align=center;verticalAlign=middle;whiteSpace=wrap;rounded=0;" parent="1" vertex="1">
          <mxGeometry x="117.25" y="486" width="60" height="55" as="geometry" />
        </mxCell>
        <mxCell id="Ra1UkYBC7Bc8kQ_S5JcI-65" value="&lt;font style=&quot;font-size: 8px;&quot;&gt;$$pro2$$&lt;/font&gt;" style="text;html=1;strokeColor=none;fillColor=none;align=center;verticalAlign=middle;whiteSpace=wrap;rounded=0;fontColor=#000000;" parent="1" vertex="1">
          <mxGeometry x="155.25" y="491" width="60" height="22" as="geometry" />
        </mxCell>
        <mxCell id="vXWSQ5Rv11uB9TsXxkIm-3" value="&lt;font style=&quot;font-size: 8px;&quot;&gt;$$pro7$$&lt;/font&gt;" style="text;html=1;strokeColor=none;fillColor=none;align=center;verticalAlign=middle;whiteSpace=wrap;rounded=0;fontColor=#000000;" parent="1" vertex="1">
          <mxGeometry x="159.25" y="499" width="60" height="22" as="geometry" />
        </mxCell>
        <mxCell id="Ra1UkYBC7Bc8kQ_S5JcI-64" value="&lt;font style=&quot;font-size: 8px;&quot;&gt;$$pro1$$&lt;/font&gt;" style="text;html=1;strokeColor=none;fillColor=none;align=center;verticalAlign=middle;whiteSpace=wrap;rounded=0;fontColor=#000000;" parent="1" vertex="1">
          <mxGeometry x="151.25" y="483" width="60" height="22" as="geometry" />
        </mxCell>
        <mxCell id="PxduduCyMUjNgnI8uYfy-3" value="" style="endArrow=none;dashed=1;html=1;rounded=0;fontSize=7;strokeColor=#FF0000;strokeWidth=1;fillColor=#dae8fc;" parent="1" edge="1">
          <mxGeometry width="50" height="50" relative="1" as="geometry">
            <mxPoint x="175" y="670" as="sourcePoint" />
            <mxPoint x="175" y="500" as="targetPoint" />
          </mxGeometry>
        </mxCell>
        <mxCell id="PxduduCyMUjNgnI8uYfy-1" value="" style="endArrow=none;dashed=1;html=1;rounded=0;fontSize=7;strokeColor=#FF0000;strokeWidth=1;fillColor=#dae8fc;" parent="1" edge="1">
          <mxGeometry width="50" height="50" relative="1" as="geometry">
            <mxPoint x="227" y="670" as="sourcePoint" />
            <mxPoint x="227" y="539" as="targetPoint" />
          </mxGeometry>
        </mxCell>
        <mxCell id="PxduduCyMUjNgnI8uYfy-4" value="" style="endArrow=none;dashed=1;html=1;rounded=0;fontSize=7;strokeColor=#FF0000;strokeWidth=1;fillColor=#dae8fc;" parent="1" edge="1">
          <mxGeometry width="50" height="50" relative="1" as="geometry">
            <mxPoint x="247" y="670" as="sourcePoint" />
            <mxPoint x="247" y="535" as="targetPoint" />
          </mxGeometry>
        </mxCell>
        <mxCell id="PxduduCyMUjNgnI8uYfy-5" value="" style="endArrow=none;dashed=1;html=1;rounded=0;fontSize=7;strokeColor=#FF0000;strokeWidth=1;fillColor=#dae8fc;" parent="1" edge="1">
          <mxGeometry width="50" height="50" relative="1" as="geometry">
            <mxPoint x="281" y="670" as="sourcePoint" />
            <mxPoint x="281" y="501" as="targetPoint" />
          </mxGeometry>
        </mxCell>
        <mxCell id="Ra1UkYBC7Bc8kQ_S5JcI-66" value="&lt;font style=&quot;font-size: 8px;&quot;&gt;$$sig1$$&lt;/font&gt;" style="text;html=1;strokeColor=none;fillColor=none;align=center;verticalAlign=middle;whiteSpace=wrap;rounded=0;fontColor=#000000;" parent="1" vertex="1">
          <mxGeometry x="204.25" y="520" width="60" height="22" as="geometry" />
        </mxCell>
        <mxCell id="Ra1UkYBC7Bc8kQ_S5JcI-67" value="&lt;font style=&quot;font-size: 8px;&quot;&gt;$$sig2$$&lt;/font&gt;" style="text;html=1;strokeColor=none;fillColor=none;align=center;verticalAlign=middle;whiteSpace=wrap;rounded=0;fontColor=#000000;" parent="1" vertex="1">
          <mxGeometry x="207.25" y="528" width="60" height="22" as="geometry" />
        </mxCell>
        <mxCell id="Ra1UkYBC7Bc8kQ_S5JcI-14" value="&lt;font style=&quot;font-size: 8px;&quot;&gt;$$sig7$$&lt;/font&gt;" style="text;html=1;strokeColor=none;fillColor=none;align=center;verticalAlign=middle;whiteSpace=wrap;rounded=0;fontColor=#000000;" parent="1" vertex="1">
          <mxGeometry x="211.25" y="536" width="60" height="22" as="geometry" />
        </mxCell>
        <mxCell id="Ra1UkYBC7Bc8kQ_S5JcI-70" value="&lt;font style=&quot;font-size: 8px;&quot;&gt;$$tx2$$&lt;/font&gt;" style="text;html=1;strokeColor=none;fillColor=none;align=center;verticalAlign=middle;whiteSpace=wrap;rounded=0;fontColor=#000000;" parent="1" vertex="1">
          <mxGeometry x="317.25" y="569" width="60" height="22" as="geometry" />
        </mxCell>
        <mxCell id="Ra1UkYBC7Bc8kQ_S5JcI-71" value="&lt;font style=&quot;font-size: 8px;&quot;&gt;$$tx7$$&lt;/font&gt;" style="text;html=1;strokeColor=none;fillColor=none;align=center;verticalAlign=middle;whiteSpace=wrap;rounded=0;fontColor=#000000;" parent="1" vertex="1">
          <mxGeometry x="320.25" y="577" width="60" height="22" as="geometry" />
        </mxCell>
        <mxCell id="PxduduCyMUjNgnI8uYfy-9" value="" style="endArrow=none;dashed=1;html=1;rounded=0;fontSize=7;strokeColor=#FF0000;strokeWidth=1;fillColor=#dae8fc;" parent="1" edge="1">
          <mxGeometry width="50" height="50" relative="1" as="geometry">
            <mxPoint x="336" y="670" as="sourcePoint" />
            <mxPoint x="336" y="576" as="targetPoint" />
          </mxGeometry>
        </mxCell>
        <mxCell id="vXWSQ5Rv11uB9TsXxkIm-90" value="" style="strokeWidth=1;html=1;shape=mxgraph.flowchart.start_1;whiteSpace=wrap;labelBackgroundColor=none;fontSize=5;fillColor=none;rotation=15;dashed=1;strokeColor=#4C0099;" parent="1" vertex="1">
          <mxGeometry x="368.96" y="577.74" width="3.94" height="31.21" as="geometry" />
        </mxCell>
        <mxCell id="PxduduCyMUjNgnI8uYfy-14" value="" style="endArrow=none;dashed=1;html=1;rounded=0;fontSize=7;strokeColor=#FF0000;strokeWidth=1;fillColor=#dae8fc;" parent="1" edge="1">
          <mxGeometry width="50" height="50" relative="1" as="geometry">
            <mxPoint x="418" y="670" as="sourcePoint" />
            <mxPoint x="418" y="608" as="targetPoint" />
          </mxGeometry>
        </mxCell>
        <mxCell id="wejyW3TpLPZqRhK-sgEW-14" value="" style="rounded=0;whiteSpace=wrap;html=1;fillColor=#0000CC;" parent="1" vertex="1">
          <mxGeometry x="438" y="610" width="8" height="3" as="geometry" />
        </mxCell>
        <mxCell id="wejyW3TpLPZqRhK-sgEW-13" value="" style="rounded=0;whiteSpace=wrap;html=1;fillColor=#0000CC;" parent="1" vertex="1">
          <mxGeometry x="438" y="642" width="8" height="3" as="geometry" />
        </mxCell>
        <mxCell id="PxduduCyMUjNgnI8uYfy-18" value="" style="endArrow=none;dashed=1;html=1;rounded=0;fontSize=7;strokeColor=#FF0000;strokeWidth=1;fillColor=#dae8fc;" parent="1" edge="1">
          <mxGeometry width="50" height="50" relative="1" as="geometry">
            <mxPoint x="446" y="670" as="sourcePoint" />
            <mxPoint x="446" y="578" as="targetPoint" />
          </mxGeometry>
        </mxCell>
        <mxCell id="R_TfO7n2XVrTC__6ODI5-12" value="" style="endArrow=none;dashed=1;html=1;rounded=0;fontSize=7;strokeColor=#0000CC;strokeWidth=1;fillColor=#dae8fc;" parent="1" edge="1">
          <mxGeometry width="50" height="50" relative="1" as="geometry">
            <mxPoint x="438" y="670" as="sourcePoint" />
            <mxPoint x="438" y="579" as="targetPoint" />
          </mxGeometry>
        </mxCell>
        <mxCell id="Ra1UkYBC7Bc8kQ_S5JcI-73" value="&lt;font style=&quot;font-size: 8px;&quot;&gt;$$tx1$$&lt;/font&gt;" style="text;html=1;strokeColor=none;fillColor=none;align=center;verticalAlign=middle;whiteSpace=wrap;rounded=0;fontColor=#000000;" parent="1" vertex="1">
          <mxGeometry x="395.25" y="592" width="60" height="22" as="geometry" />
        </mxCell>
        <mxCell id="Ra1UkYBC7Bc8kQ_S5JcI-75" value="&lt;font style=&quot;font-size: 8px;&quot;&gt;$$tx2$$&lt;/font&gt;" style="text;html=1;strokeColor=none;fillColor=none;align=center;verticalAlign=middle;whiteSpace=wrap;rounded=0;fontColor=#000000;" parent="1" vertex="1">
          <mxGeometry x="399.25" y="601" width="60" height="22" as="geometry" />
        </mxCell>
        <mxCell id="Ra1UkYBC7Bc8kQ_S5JcI-76" value="&lt;font style=&quot;font-size: 8px;&quot;&gt;$$tx7$$&lt;/font&gt;" style="text;html=1;strokeColor=none;fillColor=none;align=center;verticalAlign=middle;whiteSpace=wrap;rounded=0;fontColor=#000000;" parent="1" vertex="1">
          <mxGeometry x="403.25" y="609" width="60" height="22" as="geometry" />
        </mxCell>
        <mxCell id="Ra1UkYBC7Bc8kQ_S5JcI-74" value="&lt;font style=&quot;font-size: 8px;&quot;&gt;$$tx2$$&lt;/font&gt;" style="text;html=1;strokeColor=none;fillColor=none;align=center;verticalAlign=middle;whiteSpace=wrap;rounded=0;fontColor=#000000;" parent="1" vertex="1">
          <mxGeometry x="398.25" y="633" width="60" height="22" as="geometry" />
        </mxCell>
        <mxCell id="Ra1UkYBC7Bc8kQ_S5JcI-72" value="&lt;font style=&quot;font-size: 8px;&quot;&gt;$$tx1$$&lt;/font&gt;" style="text;html=1;strokeColor=none;fillColor=none;align=center;verticalAlign=middle;whiteSpace=wrap;rounded=0;fontColor=#000000;" parent="1" vertex="1">
          <mxGeometry x="394.25" y="624" width="60" height="22" as="geometry" />
        </mxCell>
        <mxCell id="Ra1UkYBC7Bc8kQ_S5JcI-77" value="&lt;font style=&quot;font-size: 8px;&quot;&gt;$$tx7$$&lt;/font&gt;" style="text;html=1;strokeColor=none;fillColor=none;align=center;verticalAlign=middle;whiteSpace=wrap;rounded=0;fontColor=#000000;" parent="1" vertex="1">
          <mxGeometry x="403.25" y="641" width="60" height="22" as="geometry" />
        </mxCell>
        <mxCell id="Ra1UkYBC7Bc8kQ_S5JcI-62" value="" style="verticalLabelPosition=bottom;verticalAlign=top;html=1;shape=mxgraph.basic.rect;fillColor2=none;strokeWidth=1;size=20;indent=5;fontSize=7;fillColor=#f5f5f5;strokeColor=#666666;fontColor=#333333;" parent="1" vertex="1">
          <mxGeometry x="530" y="523.33" width="15" height="26" as="geometry" />
        </mxCell>
        <mxCell id="R_TfO7n2XVrTC__6ODI5-9" value="" style="rounded=1;whiteSpace=wrap;html=1;" parent="1" vertex="1">
          <mxGeometry x="523" y="521" width="24" height="31" as="geometry" />
        </mxCell>
        <mxCell id="FMVHNKBBkChkBREBz5Vj-7" value="" style="verticalLabelPosition=bottom;verticalAlign=top;html=1;shape=mxgraph.basic.rect;fillColor2=none;strokeWidth=1;size=20;indent=5;fontSize=7;fillColor=#fad9d5;strokeColor=#ae4132;" parent="1" vertex="1">
          <mxGeometry x="525" y="541.3299999999999" width="20" height="8" as="geometry" />
        </mxCell>
        <mxCell id="FMVHNKBBkChkBREBz5Vj-5" value="" style="verticalLabelPosition=bottom;verticalAlign=top;html=1;shape=mxgraph.basic.rect;fillColor2=none;strokeWidth=1;size=20;indent=5;fontSize=7;fillColor=#FAD9D5;strokeColor=#ae4132;" parent="1" vertex="1">
          <mxGeometry x="525" y="523.3299999999999" width="20" height="8" as="geometry" />
        </mxCell>
        <mxCell id="FMVHNKBBkChkBREBz5Vj-6" value="" style="verticalLabelPosition=bottom;verticalAlign=top;html=1;shape=mxgraph.basic.rect;fillColor2=none;strokeWidth=1;size=20;indent=5;fontSize=7;fillColor=#fad9d5;strokeColor=#ae4132;" parent="1" vertex="1">
          <mxGeometry x="525" y="532.3299999999999" width="20" height="8" as="geometry" />
        </mxCell>
        <mxCell id="PxduduCyMUjNgnI8uYfy-19" value="" style="endArrow=none;dashed=1;html=1;rounded=0;fontSize=7;strokeColor=#FF0000;strokeWidth=1;fillColor=#dae8fc;" parent="1" edge="1">
          <mxGeometry width="50" height="50" relative="1" as="geometry">
            <mxPoint x="523" y="670" as="sourcePoint" />
            <mxPoint x="523" y="526" as="targetPoint" />
          </mxGeometry>
        </mxCell>
        <mxCell id="Trnzre_r4BiW6Tw0E5rN-216" value="" style="endArrow=none;dashed=1;html=1;rounded=0;fontSize=7;strokeColor=#000000;strokeWidth=1;fillColor=#dae8fc;" parent="1" edge="1">
          <mxGeometry width="50" height="50" relative="1" as="geometry">
            <mxPoint x="547" y="670" as="sourcePoint" />
            <mxPoint x="547" y="524" as="targetPoint" />
          </mxGeometry>
        </mxCell>
        <mxCell id="FMVHNKBBkChkBREBz5Vj-8" value="&lt;font style=&quot;font-size: 8px;&quot;&gt;$$tx1$$&lt;/font&gt;" style="text;html=1;strokeColor=none;fillColor=none;align=center;verticalAlign=middle;whiteSpace=wrap;rounded=0;fontColor=#000000;" parent="1" vertex="1">
          <mxGeometry x="506.25" y="516" width="60" height="22" as="geometry" />
        </mxCell>
        <mxCell id="FMVHNKBBkChkBREBz5Vj-12" value="&lt;font style=&quot;font-size: 8px;&quot;&gt;$$tx2$$&lt;/font&gt;" style="text;html=1;strokeColor=none;fillColor=none;align=center;verticalAlign=middle;whiteSpace=wrap;rounded=0;fontColor=#000000;" parent="1" vertex="1">
          <mxGeometry x="506.25" y="525" width="60" height="22" as="geometry" />
        </mxCell>
        <mxCell id="FMVHNKBBkChkBREBz5Vj-10" value="&lt;font style=&quot;font-size: 8px;&quot;&gt;$$tx7$$&lt;/font&gt;" style="text;html=1;strokeColor=none;fillColor=none;align=center;verticalAlign=middle;whiteSpace=wrap;rounded=0;fontColor=#000000;" parent="1" vertex="1">
          <mxGeometry x="506.25" y="535" width="60" height="22" as="geometry" />
        </mxCell>
        <mxCell id="Fxq-wvsZDKYLinho3GOP-47" value="" style="endArrow=openAsync;html=1;rounded=0;endFill=0;startSize=3;endSize=3;jumpSize=3;" parent="1" edge="1">
          <mxGeometry width="50" height="50" relative="1" as="geometry">
            <mxPoint x="446" y="555" as="sourcePoint" />
            <mxPoint x="446" y="565" as="targetPoint" />
          </mxGeometry>
        </mxCell>
        <mxCell id="Fl3gwxWYnQn7I_qvpyEt-1" value="&lt;h6 style=&quot;&quot;&gt;&lt;font style=&quot;line-height: 0.2; font-weight: normal; font-size: 10px;&quot;&gt;Idle time of tx2&lt;/font&gt;&lt;/h6&gt;" style="text;html=1;strokeColor=none;fillColor=none;align=center;verticalAlign=middle;whiteSpace=wrap;rounded=0;" parent="1" vertex="1">
          <mxGeometry x="457.12" y="425" width="89.88" height="37" as="geometry" />
        </mxCell>
        <mxCell id="Fl3gwxWYnQn7I_qvpyEt-2" value="&lt;h6 style=&quot;&quot;&gt;&lt;font style=&quot;line-height: 0.2; font-weight: normal; font-size: 10px;&quot;&gt;Communication latency&lt;/font&gt;&lt;/h6&gt;" style="text;html=1;strokeColor=none;fillColor=none;align=center;verticalAlign=middle;whiteSpace=wrap;rounded=0;" parent="1" vertex="1">
          <mxGeometry x="463.12" y="412" width="114.88" height="27" as="geometry" />
        </mxCell>
        <mxCell id="Fl3gwxWYnQn7I_qvpyEt-3" value="" style="rounded=0;whiteSpace=wrap;html=1;fillColor=#FF0000;" parent="1" vertex="1">
          <mxGeometry x="451" y="423" width="12" height="3" as="geometry" />
        </mxCell>
        <mxCell id="Fl3gwxWYnQn7I_qvpyEt-4" value="" style="rounded=0;whiteSpace=wrap;html=1;fillColor=#0000CC;" parent="1" vertex="1">
          <mxGeometry x="451" y="441" width="12" height="3" as="geometry" />
        </mxCell>
        <mxCell id="Fl3gwxWYnQn7I_qvpyEt-12" value="&lt;h6 style=&quot;&quot;&gt;&lt;font style=&quot;line-height: 0.2; font-weight: normal; font-size: 10px;&quot;&gt;Parallel service time&lt;/font&gt;&lt;/h6&gt;" style="text;html=1;strokeColor=none;fillColor=none;align=center;verticalAlign=middle;whiteSpace=wrap;rounded=0;" parent="1" vertex="1">
          <mxGeometry x="290.12" y="398" width="189.88" height="55" as="geometry" />
        </mxCell>
        <mxCell id="Fl3gwxWYnQn7I_qvpyEt-13" value="&lt;h6 style=&quot;&quot;&gt;&lt;font style=&quot;line-height: 0.2; font-weight: normal; font-size: 10px;&quot;&gt;Sequential service time&lt;/font&gt;&lt;/h6&gt;" style="text;html=1;strokeColor=none;fillColor=none;align=center;verticalAlign=middle;whiteSpace=wrap;rounded=0;" parent="1" vertex="1">
          <mxGeometry x="297.12" y="416" width="189.88" height="55" as="geometry" />
        </mxCell>
      </root>
    </mxGraphModel>
  </diagram>
</mxfile>
